HIERARCHY
ROOT Hips
{
    OFFSET 0.000000 0.000000 0.000000
    CHANNELS 6 Xposition Yposition Zposition Zrotation Xrotation Yrotation
    JOINT Spine
    {
        OFFSET -0.000002 7.912555 -0.000023
        CHANNELS 3 Zrotation Xrotation Yrotation
        JOINT Spine1
        {
            OFFSET -0.000002 20.967003 -0.000017
            CHANNELS 3 Zrotation Xrotation Yrotation
            JOINT Neck
            {
                OFFSET 0.000007 22.149519 0.000033
                CHANNELS 3 Zrotation Xrotation Yrotation
                JOINT Head
                {
                    OFFSET -0.000001 14.135933 1.902213
                    CHANNELS 3 Zrotation Xrotation Yrotation
                    End Site
                    {
                        OFFSET 0.000000 19.022141 0.000000
                    }
                }
            }
            JOINT LeftShoulder
            {
                OFFSET 3.797829 16.121201 -0.677323
                CHANNELS 3 Zrotation Xrotation Yrotation
                JOINT LeftArm
                {
                    OFFSET 11.576591 -0.000001 0.000003
                    CHANNELS 3 Zrotation Xrotation Yrotation
                    JOINT LeftForeArm
                    {
                        OFFSET 29.906420 0.000009 -0.000001
                        CHANNELS 3 Zrotation Xrotation Yrotation
                        JOINT LeftHand
                        {
                            OFFSET 24.318331 0.000003 -0.000010
                            CHANNELS 3 Zrotation Xrotation Yrotation
                            JOINT LeftHandThumb1
                            {
                                OFFSET 1.987815 -2.258873 3.162438
                                CHANNELS 3 Zrotation Xrotation Yrotation
                                JOINT LeftHandThumb2
                                {
                                    OFFSET 3.002307 0.000012 0.000001
                                    CHANNELS 3 Zrotation Xrotation Yrotation
                                    JOINT LeftHandThumb3
                                    {
                                        OFFSET 2.566088 0.000012 0.000001
                                        CHANNELS 3 Zrotation Xrotation Yrotation
                                        End Site
                                        {
                                            OFFSET 2.440626 0.000000 0.000000
                                        }
                                    }
                                }
                            }
                            JOINT LeftHandIndex1
                            {
                                OFFSET 8.131962 -0.000007 3.162420
                                CHANNELS 3 Zrotation Xrotation Yrotation
                                JOINT LeftHandIndex2
                                {
                                    OFFSET 4.517756 -0.000012 -0.000012
                                    CHANNELS 3 Zrotation Xrotation Yrotation
                                    JOINT LeftHandIndex3
                                    {
                                        OFFSET 2.258882 0.000012 0.000009
                                        CHANNELS 3 Zrotation Xrotation Yrotation
                                        End Site
                                        {
                                            OFFSET 2.148437 0.000000 0.000000
                                        }
                                    }
                                }
                            }
                            JOINT LeftHandMiddle1
                            {
                                OFFSET 8.131966 0.000003 1.048119
                                CHANNELS 3 Zrotation Xrotation Yrotation
                                JOINT LeftHandMiddle2
                                {
                                    OFFSET 4.969539 0.000018 0.000017
                                    CHANNELS 3 Zrotation Xrotation Yrotation
                                    JOINT LeftHandMiddle3
                                    {
                                        OFFSET 2.710657 0.000007 0.000006
                                        CHANNELS 3 Zrotation Xrotation Yrotation
                                        End Site
                                        {
                                            OFFSET 2.578118 0.000000 0.000000
                                        }
                                    }
                                }
                            }
                            JOINT LeftHandRing1
                            {
                                OFFSET 7.680196 0.000010 -1.048114
                                CHANNELS 3 Zrotation Xrotation Yrotation
                                JOINT LeftHandRing2
                                {
                                    OFFSET 4.517755 -0.000010 -0.000014
                                    CHANNELS 3 Zrotation Xrotation Yrotation
                                    JOINT LeftHandRing3
                                    {
                                        OFFSET 2.258881 0.000011 0.000011
                                        CHANNELS 3 Zrotation Xrotation Yrotation
                                        End Site
                                        {
                                            OFFSET 2.148437 0.000000 0.000000
                                        }
                                    }
                                }
                            }
                            JOINT LeftHandPinky1
                            {
                                OFFSET 7.228411 -0.000007 -3.162446
                                CHANNELS 3 Zrotation Xrotation Yrotation
                                JOINT LeftHandPinky2
                                {
                                    OFFSET 3.614204 0.000000 -0.000004
                                    CHANNELS 3 Zrotation Xrotation Yrotation
                                    JOINT LeftHandPinky3
                                    {
                                        OFFSET 1.807106 0.000012 0.000018
                                        CHANNELS 3 Zrotation Xrotation Yrotation
                                        End Site
                                        {
                                            OFFSET 1.718745 0.000000 0.000000
                                        }
                                    }
                                }
                            }
                        }
                    }
                }
            }
            JOINT RightShoulder
            {
                OFFSET -3.797831 16.121202 -0.677286
                CHANNELS 3 Zrotation Xrotation Yrotation
                JOINT RightArm
                {
                    OFFSET -11.576587 -0.000003 0.000003
                    CHANNELS 3 Zrotation Xrotation Yrotation
                    JOINT RightForeArm
                    {
                        OFFSET -29.906410 0.000012 -0.000003
                        CHANNELS 3 Zrotation Xrotation Yrotation
                        JOINT RightHand
                        {
                            OFFSET -24.318336 0.000010 0.000009
                            CHANNELS 3 Zrotation Xrotation Yrotation
                            JOINT RightHandThumb1
                            {
                                OFFSET -1.987823 -2.258880 3.162438
                                CHANNELS 3 Zrotation Xrotation Yrotation
                                JOINT RightHandThumb2
                                {
                                    OFFSET -3.002299 -0.000004 0.000005
                                    CHANNELS 3 Zrotation Xrotation Yrotation
                                    JOINT RightHandThumb3
                                    {
                                        OFFSET -2.566076 -0.000003 -0.000002
                                        CHANNELS 3 Zrotation Xrotation Yrotation
                                        End Site
                                        {
                                            OFFSET -2.440626 0.000000 0.000000
                                        }
                                    }
                                }
                            }
                            JOINT RightHandIndex1
                            {
                                OFFSET -8.131960 0.000002 3.162432
                                CHANNELS 3 Zrotation Xrotation Yrotation
                                JOINT RightHandIndex2
                                {
                                    OFFSET -4.517778 -0.000001 0.000013
                                    CHANNELS 3 Zrotation Xrotation Yrotation
                                    JOINT RightHandIndex3
                                    {
                                        OFFSET -2.258888 0.000005 0.000007
                                        CHANNELS 3 Zrotation Xrotation Yrotation
                                        End Site
                                        {
                                            OFFSET -2.148437 0.000000 0.000000
                                        }
                                    }
                                }
                            }
                            JOINT RightHandMiddle1
                            {
                                OFFSET -8.131976 0.000003 1.048130
                                CHANNELS 3 Zrotation Xrotation Yrotation
                                JOINT RightHandMiddle2
                                {
                                    OFFSET -4.969540 -0.000003 0.000001
                                    CHANNELS 3 Zrotation Xrotation Yrotation
                                    JOINT RightHandMiddle3
                                    {
                                        OFFSET -2.710650 -0.000002 -0.000004
                                        CHANNELS 3 Zrotation Xrotation Yrotation
                                        End Site
                                        {
                                            OFFSET -2.578118 0.000000 0.000000
                                        }
                                    }
                                }
                            }
                            JOINT RightHandRing1
                            {
                                OFFSET -7.680203 -0.000003 -1.048115
                                CHANNELS 3 Zrotation Xrotation Yrotation
                                JOINT RightHandRing2
                                {
                                    OFFSET -4.517777 -0.000002 0.000011
                                    CHANNELS 3 Zrotation Xrotation Yrotation
                                    JOINT RightHandRing3
                                    {
                                        OFFSET -2.258889 -0.000000 0.000005
                                        CHANNELS 3 Zrotation Xrotation Yrotation
                                        End Site
                                        {
                                            OFFSET -2.148437 0.000000 0.000000
                                        }
                                    }
                                }
                            }
                            JOINT RightHandPinky1
                            {
                                OFFSET -7.228416 -0.000001 -3.162432
                                CHANNELS 3 Zrotation Xrotation Yrotation
                                JOINT RightHandPinky2
                                {
                                    OFFSET -3.614213 -0.000001 0.000005
                                    CHANNELS 3 Zrotation Xrotation Yrotation
                                    JOINT RightHandPinky3
                                    {
                                        OFFSET -1.807086 0.000001 -0.000009
                                        CHANNELS 3 Zrotation Xrotation Yrotation
                                        End Site
                                        {
                                            OFFSET -1.718745 0.000000 0.000000
                                        }
                                    }
                                }
                            }
                        }
                    }
                }
            }
        }
    }
    JOINT LeftUpLeg
    {
        OFFSET 9.511071 0.000003 -0.000008
        CHANNELS 3 Zrotation Xrotation Yrotation
        JOINT LeftLeg
        {
            OFFSET 0.000006 -43.875641 0.000019
            CHANNELS 3 Zrotation Xrotation Yrotation
            JOINT LeftFoot
            {
                OFFSET 0.000003 -35.354160 0.000003
                CHANNELS 3 Zrotation Xrotation Yrotation
                JOINT LeftToeBase
                {
                    OFFSET 0.000004 -6.182193 14.266592
                    CHANNELS 3 Zrotation Xrotation Yrotation
                    End Site
                    {
                        OFFSET 0.000000 0.000000 3.804428
                    }
                }
            }
        }
    }
    JOINT RightUpLeg
    {
        OFFSET -9.511071 -0.000003 0.000008
        CHANNELS 3 Zrotation Xrotation Yrotation
        JOINT RightLeg
        {
            OFFSET -0.000005 -43.875633 -0.000015
            CHANNELS 3 Zrotation Xrotation Yrotation
            JOINT RightFoot
            {
                OFFSET -0.000004 -35.354164 -0.000013
                CHANNELS 3 Zrotation Xrotation Yrotation
                JOINT RightToeBase
                {
                    OFFSET -0.000000 -6.182192 14.266604
                    CHANNELS 3 Zrotation Xrotation Yrotation
                    End Site
                    {
                        OFFSET 0.000000 0.000000 3.804428
                    }
                }
            }
        }
    }
}
MOTION
Frames:    4
Frame Time:    0.002778
34.376266    92.795326    600.019653    1.884807    -7.075124    -155.093826    -0.110445    4.001597    1.600759    -0.552224    4.001419    1.631589    4.945469    9.270557    -20.605219    4.945469    9.270555    -20.605217    4.179900    -1.595127    0.860582    -36.804749    -2.548689    -65.173782    -35.505173    -43.829136    -46.048424    -2.331585    -0.574221    0.819168    47.448212    38.866428    -34.355034    -34.999989    0.000003    0.000014    -0.000000    0.000000    -0.000000    -0.000004    9.999998    0.000002    -0.000000    0.000000    -0.000000    -0.000000    0.000000    -0.000000    -0.000000    0.000000    -0.000000    -0.000000    0.000000    -0.000000    -0.000000    0.000000    -0.000000    -0.000000    0.000000    -0.000000    -0.000000    0.000000    -0.000000    -0.000000    0.000000    -0.000000    0.000003    -10.000001    -0.000005    -0.000000    0.000000    -0.000000    -0.000000    0.000000    -0.000000    -6.929864    -1.003768    2.582793    36.274902    5.079130    46.219212    4.239295    12.180921    41.135586    -49.594376    10.034394    -8.353010    -47.448204    38.866417    34.355030    34.999996    -0.000001    -0.000006    -0.000000    0.000000    -0.000000    0.000001    9.999999    0.000006    -0.000000    0.000000    -0.000000    -0.000000    0.000000    -0.000000    -0.000000    0.000000    -0.000000    -0.000000    0.000000    -0.000000    -0.000000    0.000000    -0.000000    -0.000000    0.000000    -0.000000    -0.000000    0.000000    -0.000000    -0.000000    0.000000    -0.000000    0.000003    -9.999998    0.000004    -0.000000    0.000000    -0.000000    -0.000000    0.000000    -0.000000    11.699603    -15.275188    0.384584    0.000001    16.311319    0.000002    -12.616070    -8.169043    -0.560182    -0.000000    -0.010564    -0.000002    -13.012098    -19.353472    -2.211279    -0.000001    33.665340    0.000002    13.347741    -15.854489    -15.568438    0.000000    -3.176780    -0.000001    
34.393318    92.785301    600.066040    1.885855    -7.204368    -155.105728    -0.109891    4.000610    1.730555    -0.549456    4.000433    1.761223    4.915226    9.247786    -20.672031    4.915225    9.247787    -20.672026    4.191606    -1.657770    0.897433    -36.840492    -2.192638    -64.831360    -35.434608    -43.684013    -45.974461    -2.646653    -0.578117    0.832490    47.448204    38.866428    -34.355026    -34.999977    -0.000003    0.000021    -0.000000    0.000000    -0.000000    -0.000000    10.000004    0.000005    -0.000000    0.000000    -0.000000    -0.000000    0.000000    -0.000000    -0.000000    0.000000    -0.000000    -0.000000    0.000000    -0.000000    -0.000000    0.000000    -0.000000    -0.000000    0.000000    -0.000000    -0.000000    0.000000    -0.000000    -0.000000    0.000000    -0.000000    -0.000003    -10.000001    0.000003    -0.000000    0.000000    -0.000000    -0.000000    0.000000    -0.000000    -6.989757    -0.807483    2.424350    35.664978    5.610444    47.348553    3.914449    11.164150    38.976135    -49.231110    9.931378    -8.376678    -47.448219    38.866440    34.355030    35.000000    -0.000001    0.000010    -0.000000    0.000000    -0.000000    0.000001    10.000000    0.000005    -0.000000    0.000000    -0.000000    -0.000000    0.000000    -0.000000    -0.000000    0.000000    -0.000000    -0.000000    0.000000    -0.000000    -0.000000    0.000000    -0.000000    -0.000000    0.000000    -0.000000    -0.000000    0.000000    -0.000000    -0.000000    0.000000    -0.000000    0.000003    -9.999999    0.000009    -0.000000    0.000000    -0.000000    -0.000000    0.000000    -0.000000    11.665087    -15.356140    0.420539    0.000000    16.171677    -0.000002    -12.741694    -8.090374    -0.552845    -0.000000    -0.016457    -0.000002    -13.084750    -19.569197    -2.249979    0.000002    33.786037    -0.000001    13.341133    -15.847179    -15.548528    0.000000    -3.173443    0.000000    
34.408264    92.776093    600.108948    1.885232    -7.323531    -155.117126    -0.108997    4.003628    1.863681    -0.544987    4.003454    1.894127    4.887045    9.217958    -20.758207    4.887045    9.217959    -20.758207    4.197022    -1.698210    0.933918    -36.877434    -1.854601    -64.516212    -35.217316    -43.537785    -45.784355    -2.925722    -0.579942    0.828443    47.448204    38.866428    -34.355026    -34.999989    -0.000001    0.000003    -0.000000    0.000000    -0.000000    0.000000    9.999997    -0.000002    -0.000000    0.000000    -0.000000    -0.000000    0.000000    -0.000000    -0.000000    0.000000    -0.000000    -0.000000    0.000000    -0.000000    -0.000000    0.000000    -0.000000    -0.000000    0.000000    -0.000000    -0.000000    0.000000    -0.000000    -0.000000    0.000000    -0.000000    -0.000007    -10.000010    -0.000002    -0.000000    0.000000    -0.000000    -0.000000    0.000000    -0.000000    -7.014931    -0.655553    2.320803    35.053204    6.067374    48.345245    3.536861    10.229667    36.890148    -48.901459    9.879656    -8.432424    -47.448215    38.866440    34.355038    34.999996    -0.000006    0.000011    -0.000000    0.000000    -0.000000    -0.000001    10.000000    -0.000007    -0.000000    0.000000    -0.000000    -0.000000    0.000000    -0.000000    -0.000000    0.000000    -0.000000    -0.000000    0.000000    -0.000000    -0.000000    0.000000    -0.000000    -0.000000    0.000000    -0.000000    -0.000000    0.000000    -0.000000    -0.000000    0.000000    -0.000000    0.000000    -9.999999    -0.000007    -0.000000    0.000000    -0.000000    -0.000000    0.000000    -0.000000    11.630387    -15.425646    0.446476    -0.000001    16.033979    -0.000000    -12.852484    -8.020885    -0.541996    0.000000    -0.024628    0.000000    -13.155152    -19.768042    -2.285897    0.000000    33.900078    -0.000001    13.347748    -15.840850    -15.526567    -0.000000    -3.173948    0.000001    
34.422523    92.766281    600.147583    1.885144    -7.437088    -155.128143    -0.108310    4.008996    2.008563    -0.541552    4.008823    2.038852    4.865052    9.179497    -20.862411    4.865054    9.179502    -20.862411    4.194785    -1.722085    0.959453    -36.926254    -1.515295    -64.240334    -35.107830    -43.403637    -45.652687    -3.217027    -0.584075    0.850886    47.448215    38.866428    -34.355034    -34.999973    0.000002    0.000020    -0.000000    0.000000    -0.000000    0.000000    10.000004    -0.000002    -0.000000    0.000000    -0.000000    -0.000000    0.000000    -0.000000    -0.000000    0.000000    -0.000000    -0.000000    0.000000    -0.000000    -0.000000    0.000000    -0.000000    -0.000000    0.000000    -0.000000    -0.000000    0.000000    -0.000000    -0.000000    0.000000    -0.000000    0.000008    -9.999997    0.000008    -0.000000    0.000000    -0.000000    -0.000000    0.000000    -0.000000    -7.032922    -0.533302    2.280078    34.420883    6.487355    49.230457    3.134598    9.390007    34.817318    -48.503906    9.789910    -8.475542    -47.448204    38.866428    34.355026    35.000000    0.000002    0.000003    -0.000000    0.000000    -0.000000    0.000002    10.000001    0.000001    -0.000000    0.000000    -0.000000    -0.000000    0.000000    -0.000000    -0.000000    0.000000    -0.000000    -0.000000    0.000000    -0.000000    -0.000000    0.000000    -0.000000    -0.000000    0.000000    -0.000000    -0.000000    0.000000    -0.000000    -0.000000    0.000000    -0.000000    0.000000    -9.999999    -0.000001    -0.000000    0.000000    -0.000000    -0.000000    0.000000    -0.000000    11.599043    -15.489239    0.467598    0.000001    15.901346    0.000001    -12.965381    -7.960328    -0.519206    0.000000    -0.031686    0.000003    -13.223159    -19.956285    -2.323119    0.000002    34.008968    -0.000002    13.354645    -15.836388    -15.502506    0.000000    -3.174433    -0.000000    
